<mxfile host="app.diagrams.net" modified="2022-04-12T09:34:09.508Z" agent="5.0 (Windows NT 10.0; Win64; x64) AppleWebKit/537.36 (KHTML, like Gecko) Chrome/100.0.4896.75 Safari/537.36" etag="MdDyMMaj5LA9HPQscOda" version="17.3.0" type="github">
  <diagram id="om4UvLvxgHY5pR8BvEh_" name="Page-1">
    <mxGraphModel dx="1422" dy="762" grid="1" gridSize="10" guides="1" tooltips="1" connect="1" arrows="1" fold="1" page="1" pageScale="1" pageWidth="827" pageHeight="1169" math="0" shadow="0">
      <root>
        <mxCell id="0" />
        <mxCell id="1" parent="0" />
        <mxCell id="Q9f0HzMRhqjO-p0kJ2Lx-22" value="" style="rounded=0;whiteSpace=wrap;html=1;" vertex="1" parent="1">
          <mxGeometry x="190" y="190" width="350" height="280" as="geometry" />
        </mxCell>
        <mxCell id="Q9f0HzMRhqjO-p0kJ2Lx-1" value="系统管理" style="shape=module;align=left;spacingLeft=20;align=center;verticalAlign=top;" vertex="1" parent="1">
          <mxGeometry x="380" y="410" width="100" height="50" as="geometry" />
        </mxCell>
        <mxCell id="Q9f0HzMRhqjO-p0kJ2Lx-25" style="edgeStyle=orthogonalEdgeStyle;rounded=0;orthogonalLoop=1;jettySize=auto;html=1;exitX=1;exitY=0.5;exitDx=0;exitDy=0;endArrow=open;endFill=0;" edge="1" parent="1" source="Q9f0HzMRhqjO-p0kJ2Lx-23" target="Q9f0HzMRhqjO-p0kJ2Lx-24">
          <mxGeometry relative="1" as="geometry" />
        </mxCell>
        <mxCell id="Q9f0HzMRhqjO-p0kJ2Lx-23" value="" style="rounded=0;whiteSpace=wrap;html=1;" vertex="1" parent="1">
          <mxGeometry x="470" y="425" width="20" height="20" as="geometry" />
        </mxCell>
        <mxCell id="Q9f0HzMRhqjO-p0kJ2Lx-24" value="" style="rounded=0;whiteSpace=wrap;html=1;" vertex="1" parent="1">
          <mxGeometry x="530" y="425" width="20" height="20" as="geometry" />
        </mxCell>
        <mxCell id="Q9f0HzMRhqjO-p0kJ2Lx-26" value="系统管理" style="text;align=center;fontStyle=1;verticalAlign=middle;spacingLeft=3;spacingRight=3;strokeColor=none;rotatable=0;points=[[0,0.5],[1,0.5]];portConstraint=eastwest;" vertex="1" parent="1">
          <mxGeometry x="540" y="422" width="80" height="26" as="geometry" />
        </mxCell>
        <mxCell id="Q9f0HzMRhqjO-p0kJ2Lx-27" value="商品管理" style="shape=module;align=left;spacingLeft=20;align=center;verticalAlign=top;" vertex="1" parent="1">
          <mxGeometry x="380" y="330" width="100" height="50" as="geometry" />
        </mxCell>
        <mxCell id="Q9f0HzMRhqjO-p0kJ2Lx-28" value="礼品管理" style="shape=module;align=left;spacingLeft=20;align=center;verticalAlign=top;" vertex="1" parent="1">
          <mxGeometry x="240" y="330" width="100" height="50" as="geometry" />
        </mxCell>
        <mxCell id="Q9f0HzMRhqjO-p0kJ2Lx-29" value="智能云仓" style="text;align=center;fontStyle=1;verticalAlign=middle;spacingLeft=3;spacingRight=3;strokeColor=none;rotatable=0;points=[[0,0.5],[1,0.5]];portConstraint=eastwest;" vertex="1" parent="1">
          <mxGeometry x="325" y="190" width="80" height="26" as="geometry" />
        </mxCell>
        <mxCell id="Q9f0HzMRhqjO-p0kJ2Lx-30" value="仓储管理" style="shape=module;align=left;spacingLeft=20;align=center;verticalAlign=top;" vertex="1" parent="1">
          <mxGeometry x="240" y="410" width="100" height="50" as="geometry" />
        </mxCell>
        <mxCell id="Q9f0HzMRhqjO-p0kJ2Lx-31" value="礼品管理" style="shape=module;align=left;spacingLeft=20;align=center;verticalAlign=top;" vertex="1" parent="1">
          <mxGeometry x="240" y="240" width="100" height="50" as="geometry" />
        </mxCell>
        <mxCell id="Q9f0HzMRhqjO-p0kJ2Lx-32" value="商品管理" style="shape=module;align=left;spacingLeft=20;align=center;verticalAlign=top;" vertex="1" parent="1">
          <mxGeometry x="380" y="240" width="100" height="50" as="geometry" />
        </mxCell>
      </root>
    </mxGraphModel>
  </diagram>
</mxfile>
